<mxfile host="app.diagrams.net" modified="2023-07-19T15:06:02.268Z" agent="Mozilla/5.0 (X11; Linux x86_64) AppleWebKit/537.36 (KHTML, like Gecko) Chrome/114.0.0.0 Safari/537.36" etag="uDkaap9rOFt3VMP-t-nJ" version="21.6.3" type="github">
  <diagram name="Page-1" id="IdEbCMzavP3VuT0_gkS9">
    <mxGraphModel dx="1434" dy="802" grid="1" gridSize="10" guides="1" tooltips="1" connect="1" arrows="1" fold="1" page="1" pageScale="1" pageWidth="827" pageHeight="1169" math="0" shadow="0">
      <root>
        <mxCell id="0" />
        <mxCell id="1" parent="0" />
        <mxCell id="VoQuoFzRfRq8GuShHxzj-1" value="ticketswap.com" style="sketch=0;outlineConnect=0;gradientColor=none;fontColor=#545B64;strokeColor=none;fillColor=#879196;dashed=0;verticalLabelPosition=bottom;verticalAlign=top;align=center;html=1;fontSize=12;fontStyle=0;aspect=fixed;shape=mxgraph.aws4.illustration_office_building;pointerEvents=1" parent="1" vertex="1">
          <mxGeometry x="422.20000000000005" y="73.5" width="100" height="71" as="geometry" />
        </mxCell>
        <mxCell id="VoQuoFzRfRq8GuShHxzj-5" style="edgeStyle=orthogonalEdgeStyle;rounded=0;orthogonalLoop=1;jettySize=auto;html=1;" parent="1" source="VoQuoFzRfRq8GuShHxzj-2" target="VoQuoFzRfRq8GuShHxzj-27" edge="1">
          <mxGeometry relative="1" as="geometry">
            <mxPoint x="209" y="148" as="targetPoint" />
          </mxGeometry>
        </mxCell>
        <mxCell id="VoQuoFzRfRq8GuShHxzj-10" value="GET page.html" style="edgeLabel;html=1;align=center;verticalAlign=middle;resizable=0;points=[];" parent="VoQuoFzRfRq8GuShHxzj-5" vertex="1" connectable="0">
          <mxGeometry x="-0.1373" y="-4" relative="1" as="geometry">
            <mxPoint as="offset" />
          </mxGeometry>
        </mxCell>
        <mxCell id="VoQuoFzRfRq8GuShHxzj-12" style="edgeStyle=orthogonalEdgeStyle;rounded=0;orthogonalLoop=1;jettySize=auto;html=1;entryX=0;entryY=0.5;entryDx=0;entryDy=0;entryPerimeter=0;" parent="1" source="VoQuoFzRfRq8GuShHxzj-2" target="VoQuoFzRfRq8GuShHxzj-11" edge="1">
          <mxGeometry relative="1" as="geometry" />
        </mxCell>
        <mxCell id="VoQuoFzRfRq8GuShHxzj-13" value="produce ticket available" style="edgeLabel;html=1;align=center;verticalAlign=middle;resizable=0;points=[];" parent="VoQuoFzRfRq8GuShHxzj-12" vertex="1" connectable="0">
          <mxGeometry x="0.0952" y="4" relative="1" as="geometry">
            <mxPoint as="offset" />
          </mxGeometry>
        </mxCell>
        <mxCell id="VoQuoFzRfRq8GuShHxzj-2" value="StatusRefresher" style="sketch=0;points=[[0,0,0],[0.25,0,0],[0.5,0,0],[0.75,0,0],[1,0,0],[0,1,0],[0.25,1,0],[0.5,1,0],[0.75,1,0],[1,1,0],[0,0.25,0],[0,0.5,0],[0,0.75,0],[1,0.25,0],[1,0.5,0],[1,0.75,0]];outlineConnect=0;fontColor=#232F3E;gradientColor=#F78E04;gradientDirection=north;fillColor=#D05C17;strokeColor=#ffffff;dashed=0;verticalLabelPosition=bottom;verticalAlign=top;align=center;html=1;fontSize=12;fontStyle=0;aspect=fixed;shape=mxgraph.aws4.resourceIcon;resIcon=mxgraph.aws4.compute;" parent="1" vertex="1">
          <mxGeometry x="181.6" y="300" width="78" height="78" as="geometry" />
        </mxCell>
        <mxCell id="VoQuoFzRfRq8GuShHxzj-4" style="edgeStyle=orthogonalEdgeStyle;rounded=0;orthogonalLoop=1;jettySize=auto;html=1;" parent="1" target="VoQuoFzRfRq8GuShHxzj-1" edge="1">
          <mxGeometry relative="1" as="geometry">
            <mxPoint x="248" y="109" as="sourcePoint" />
          </mxGeometry>
        </mxCell>
        <mxCell id="VoQuoFzRfRq8GuShHxzj-9" value="residential IP&lt;br&gt;a.b.c.d.&lt;br&gt;avoid rate limiter" style="edgeLabel;html=1;align=center;verticalAlign=middle;resizable=0;points=[];" parent="VoQuoFzRfRq8GuShHxzj-4" vertex="1" connectable="0">
          <mxGeometry x="0.1333" y="-5" relative="1" as="geometry">
            <mxPoint as="offset" />
          </mxGeometry>
        </mxCell>
        <mxCell id="VoQuoFzRfRq8GuShHxzj-11" value="" style="sketch=0;points=[[0,0,0],[0.25,0,0],[0.5,0,0],[0.75,0,0],[1,0,0],[0,1,0],[0.25,1,0],[0.5,1,0],[0.75,1,0],[1,1,0],[0,0.25,0],[0,0.5,0],[0,0.75,0],[1,0.25,0],[1,0.5,0],[1,0.75,0]];outlineConnect=0;fontColor=#232F3E;gradientColor=#FF4F8B;gradientDirection=north;fillColor=#BC1356;strokeColor=#ffffff;dashed=0;verticalLabelPosition=bottom;verticalAlign=top;align=center;html=1;fontSize=12;fontStyle=0;aspect=fixed;shape=mxgraph.aws4.resourceIcon;resIcon=mxgraph.aws4.sqs;" parent="1" vertex="1">
          <mxGeometry x="433.2" y="300" width="78" height="78" as="geometry" />
        </mxCell>
        <mxCell id="VoQuoFzRfRq8GuShHxzj-15" style="edgeStyle=orthogonalEdgeStyle;rounded=0;orthogonalLoop=1;jettySize=auto;html=1;entryX=1;entryY=0.5;entryDx=0;entryDy=0;entryPerimeter=0;" parent="1" source="VoQuoFzRfRq8GuShHxzj-14" target="VoQuoFzRfRq8GuShHxzj-11" edge="1">
          <mxGeometry relative="1" as="geometry" />
        </mxCell>
        <mxCell id="VoQuoFzRfRq8GuShHxzj-16" value="consume ticket is available" style="edgeLabel;html=1;align=center;verticalAlign=middle;resizable=0;points=[];" parent="VoQuoFzRfRq8GuShHxzj-15" vertex="1" connectable="0">
          <mxGeometry x="-0.0071" y="1" relative="1" as="geometry">
            <mxPoint as="offset" />
          </mxGeometry>
        </mxCell>
        <mxCell id="VoQuoFzRfRq8GuShHxzj-19" style="edgeStyle=orthogonalEdgeStyle;rounded=0;orthogonalLoop=1;jettySize=auto;html=1;" parent="1" source="VoQuoFzRfRq8GuShHxzj-14" target="VoQuoFzRfRq8GuShHxzj-1" edge="1">
          <mxGeometry relative="1" as="geometry">
            <Array as="points">
              <mxPoint x="700" y="109" />
            </Array>
          </mxGeometry>
        </mxCell>
        <mxCell id="VoQuoFzRfRq8GuShHxzj-20" value="GET page.html&lt;br&gt;GET ticket.html&lt;br&gt;POST buy-ticket&amp;nbsp;" style="edgeLabel;html=1;align=center;verticalAlign=middle;resizable=0;points=[];" parent="VoQuoFzRfRq8GuShHxzj-19" vertex="1" connectable="0">
          <mxGeometry x="-0.4612" y="-4" relative="1" as="geometry">
            <mxPoint as="offset" />
          </mxGeometry>
        </mxCell>
        <mxCell id="VoQuoFzRfRq8GuShHxzj-31" style="edgeStyle=orthogonalEdgeStyle;rounded=0;orthogonalLoop=1;jettySize=auto;html=1;entryX=0;entryY=0.5;entryDx=0;entryDy=0;entryPerimeter=0;" parent="1" source="VoQuoFzRfRq8GuShHxzj-14" target="VoQuoFzRfRq8GuShHxzj-30" edge="1">
          <mxGeometry relative="1" as="geometry" />
        </mxCell>
        <mxCell id="VoQuoFzRfRq8GuShHxzj-32" value="print link to stdout" style="edgeLabel;html=1;align=center;verticalAlign=middle;resizable=0;points=[];" parent="VoQuoFzRfRq8GuShHxzj-31" vertex="1" connectable="0">
          <mxGeometry x="0.1579" relative="1" as="geometry">
            <mxPoint as="offset" />
          </mxGeometry>
        </mxCell>
        <mxCell id="VoQuoFzRfRq8GuShHxzj-14" value="TicketLinkRetriever" style="sketch=0;points=[[0,0,0],[0.25,0,0],[0.5,0,0],[0.75,0,0],[1,0,0],[0,1,0],[0.25,1,0],[0.5,1,0],[0.75,1,0],[1,1,0],[0,0.25,0],[0,0.5,0],[0,0.75,0],[1,0.25,0],[1,0.5,0],[1,0.75,0]];outlineConnect=0;fontColor=#232F3E;gradientColor=#F78E04;gradientDirection=north;fillColor=#D05C17;strokeColor=#ffffff;dashed=0;verticalLabelPosition=bottom;verticalAlign=top;align=center;html=1;fontSize=12;fontStyle=0;aspect=fixed;shape=mxgraph.aws4.resourceIcon;resIcon=mxgraph.aws4.compute;" parent="1" vertex="1">
          <mxGeometry x="670" y="300" width="78" height="78" as="geometry" />
        </mxCell>
        <mxCell id="VoQuoFzRfRq8GuShHxzj-28" style="edgeStyle=orthogonalEdgeStyle;rounded=0;orthogonalLoop=1;jettySize=auto;html=1;" parent="1" source="VoQuoFzRfRq8GuShHxzj-27" target="VoQuoFzRfRq8GuShHxzj-1" edge="1">
          <mxGeometry relative="1" as="geometry" />
        </mxCell>
        <mxCell id="VoQuoFzRfRq8GuShHxzj-27" value="rotating proxy service" style="image;points=[];aspect=fixed;html=1;align=center;shadow=0;dashed=0;image=img/lib/allied_telesis/buildings/Building_Cluster.svg;" parent="1" vertex="1">
          <mxGeometry x="160" y="53.5" width="121.2" height="111" as="geometry" />
        </mxCell>
        <mxCell id="VoQuoFzRfRq8GuShHxzj-29" value="2CAPTCHA" style="image;points=[];aspect=fixed;html=1;align=center;shadow=0;dashed=0;image=img/lib/allied_telesis/buildings/Building_Cluster.svg;" parent="1" vertex="1">
          <mxGeometry x="411.6" y="440" width="121.2" height="111" as="geometry" />
        </mxCell>
        <mxCell id="VoQuoFzRfRq8GuShHxzj-30" value="" style="pointerEvents=1;verticalLabelPosition=bottom;shadow=0;dashed=0;align=center;html=1;verticalAlign=top;shape=mxgraph.electrical.plc_ladder.output_1;" parent="1" vertex="1">
          <mxGeometry x="900" y="326.5" width="50" height="25" as="geometry" />
        </mxCell>
      </root>
    </mxGraphModel>
  </diagram>
</mxfile>
